<svg width="1440" height="900" viewBox="0 0 1440 900" fill="none" xmlns="http://www.w3.org/2000/svg">
<rect width="1440" height="900" transform="matrix(1 0 0 -1 0 900)" fill="url(#paint0_linear)"/>
<mask id="path-2-inside-1" fill="white">
<path d="M851.921 212.628C854.253 211.934 855.941 210.002 856.22 207.699C856.592 204.732 856.766 202.047 856.766 199.497C856.766 196.947 856.592 194.262 856.226 191.296C855.947 188.993 854.26 187.06 851.927 186.366L834.726 181.249C834.211 179.916 833.64 178.606 833.014 177.325L841.351 162.197C842.48 160.146 842.232 157.655 840.718 155.834C837.127 151.534 832.995 147.621 828.442 144.207C826.519 142.768 823.889 142.539 821.724 143.602L805.739 151.498C804.386 150.911 803.003 150.37 801.595 149.883L796.192 133.591C795.46 131.382 793.419 129.784 790.988 129.52C784.71 128.827 779.94 128.827 773.662 129.52C771.231 129.784 769.19 131.382 768.458 133.591L763.055 149.883C761.647 150.37 760.264 150.911 758.911 151.504L742.938 143.608C740.773 142.545 738.149 142.774 736.22 144.207C731.68 147.609 727.548 151.522 723.944 155.834C722.425 157.655 722.176 160.14 723.305 162.197L731.636 177.325C731.016 178.606 730.445 179.916 729.93 181.249L712.729 186.366C710.397 187.06 708.709 188.993 708.43 191.296C708.064 194.262 707.891 196.947 707.891 199.497C707.891 202.047 708.064 204.732 708.43 207.699C708.709 210.002 710.397 211.934 712.729 212.628L729.93 217.745C730.445 219.078 731.016 220.389 731.642 221.669L723.305 236.797C722.176 238.848 722.425 241.339 723.938 243.16C727.53 247.461 731.661 251.373 736.214 254.787C738.131 256.226 740.767 256.455 742.932 255.392L758.905 247.502C760.257 248.089 761.641 248.63 763.049 249.117L768.452 265.409C769.184 267.618 771.225 269.216 773.656 269.48C776.801 269.833 779.636 269.997 782.328 269.997C785.02 269.997 787.855 269.833 790.988 269.486C793.419 269.222 795.46 267.624 796.192 265.415L801.595 249.123C803.003 248.636 804.386 248.095 805.739 247.502L821.712 255.398C823.877 256.467 826.507 256.238 828.43 254.798C832.97 251.397 837.102 247.484 840.706 243.172C842.225 241.351 842.474 238.865 841.345 236.809L833.008 221.681C833.634 220.4 834.205 219.09 834.72 217.757L851.921 212.628ZM827.977 207.434C826.017 208.022 824.491 209.485 823.895 211.353C823.052 214.008 821.935 216.564 820.583 218.955C819.609 220.671 819.59 222.733 820.546 224.454L828.417 238.742C826.947 240.287 825.39 241.762 823.765 243.148L808.679 235.693C806.855 234.788 804.678 234.812 802.873 235.728C800.348 237.009 797.65 238.066 794.846 238.865C792.88 239.424 791.329 240.875 790.709 242.731L785.597 258.147C783.333 258.276 781.329 258.276 779.059 258.147L773.948 242.731C773.327 240.875 771.783 239.429 769.81 238.865C767 238.066 764.302 237.009 761.79 235.728C759.978 234.806 757.801 234.788 755.977 235.693L740.891 243.148C739.26 241.756 737.703 240.281 736.239 238.742L744.111 224.454C745.06 222.733 745.047 220.665 744.073 218.955C742.721 216.564 741.605 214.008 740.761 211.353C740.172 209.49 738.64 208.022 736.679 207.434L720.402 202.593C720.328 201.518 720.297 200.49 720.297 199.497C720.297 198.504 720.328 197.476 720.402 196.401L736.679 191.56C738.64 190.972 740.165 189.51 740.761 187.641C741.605 184.98 742.721 182.424 744.073 180.045C745.047 178.329 745.066 176.267 744.111 174.54L736.239 160.252C737.709 158.707 739.266 157.232 740.891 155.846L755.977 163.301C757.795 164.2 759.978 164.182 761.783 163.266C764.308 161.985 767.006 160.928 769.81 160.129C771.777 159.571 773.327 158.119 773.948 156.263L779.059 140.847C781.323 140.718 783.327 140.718 785.597 140.847L790.709 156.263C791.329 158.119 792.873 159.565 794.846 160.129C797.656 160.928 800.354 161.985 802.867 163.266C804.678 164.188 806.855 164.206 808.679 163.301L823.765 155.846C825.396 157.238 826.953 158.713 828.417 160.252L820.546 174.54C819.596 176.261 819.609 178.329 820.583 180.039C821.935 182.43 823.052 184.986 823.895 187.641C824.485 189.504 826.017 190.972 827.977 191.56L844.254 196.401C844.328 197.476 844.359 198.504 844.359 199.497C844.359 200.49 844.328 201.518 844.254 202.593L827.977 207.434Z"/>
</mask>
<path d="M851.921 212.628C854.253 211.934 855.941 210.002 856.22 207.699C856.592 204.732 856.766 202.047 856.766 199.497C856.766 196.947 856.592 194.262 856.226 191.296C855.947 188.993 854.26 187.06 851.927 186.366L834.726 181.249C834.211 179.916 833.64 178.606 833.014 177.325L841.351 162.197C842.48 160.146 842.232 157.655 840.718 155.834C837.127 151.534 832.995 147.621 828.442 144.207C826.519 142.768 823.889 142.539 821.724 143.602L805.739 151.498C804.386 150.911 803.003 150.37 801.595 149.883L796.192 133.591C795.46 131.382 793.419 129.784 790.988 129.52C784.71 128.827 779.94 128.827 773.662 129.52C771.231 129.784 769.19 131.382 768.458 133.591L763.055 149.883C761.647 150.37 760.264 150.911 758.911 151.504L742.938 143.608C740.773 142.545 738.149 142.774 736.22 144.207C731.68 147.609 727.548 151.522 723.944 155.834C722.425 157.655 722.176 160.14 723.305 162.197L731.636 177.325C731.016 178.606 730.445 179.916 729.93 181.249L712.729 186.366C710.397 187.06 708.709 188.993 708.43 191.296C708.064 194.262 707.891 196.947 707.891 199.497C707.891 202.047 708.064 204.732 708.43 207.699C708.709 210.002 710.397 211.934 712.729 212.628L729.93 217.745C730.445 219.078 731.016 220.389 731.642 221.669L723.305 236.797C722.176 238.848 722.425 241.339 723.938 243.16C727.53 247.461 731.661 251.373 736.214 254.787C738.131 256.226 740.767 256.455 742.932 255.392L758.905 247.502C760.257 248.089 761.641 248.63 763.049 249.117L768.452 265.409C769.184 267.618 771.225 269.216 773.656 269.48C776.801 269.833 779.636 269.997 782.328 269.997C785.02 269.997 787.855 269.833 790.988 269.486C793.419 269.222 795.46 267.624 796.192 265.415L801.595 249.123C803.003 248.636 804.386 248.095 805.739 247.502L821.712 255.398C823.877 256.467 826.507 256.238 828.43 254.798C832.97 251.397 837.102 247.484 840.706 243.172C842.225 241.351 842.474 238.865 841.345 236.809L833.008 221.681C833.634 220.4 834.205 219.09 834.72 217.757L851.921 212.628ZM827.977 207.434C826.017 208.022 824.491 209.485 823.895 211.353C823.052 214.008 821.935 216.564 820.583 218.955C819.609 220.671 819.59 222.733 820.546 224.454L828.417 238.742C826.947 240.287 825.39 241.762 823.765 243.148L808.679 235.693C806.855 234.788 804.678 234.812 802.873 235.728C800.348 237.009 797.65 238.066 794.846 238.865C792.88 239.424 791.329 240.875 790.709 242.731L785.597 258.147C783.333 258.276 781.329 258.276 779.059 258.147L773.948 242.731C773.327 240.875 771.783 239.429 769.81 238.865C767 238.066 764.302 237.009 761.79 235.728C759.978 234.806 757.801 234.788 755.977 235.693L740.891 243.148C739.26 241.756 737.703 240.281 736.239 238.742L744.111 224.454C745.06 222.733 745.047 220.665 744.073 218.955C742.721 216.564 741.605 214.008 740.761 211.353C740.172 209.49 738.64 208.022 736.679 207.434L720.402 202.593C720.328 201.518 720.297 200.49 720.297 199.497C720.297 198.504 720.328 197.476 720.402 196.401L736.679 191.56C738.64 190.972 740.165 189.51 740.761 187.641C741.605 184.98 742.721 182.424 744.073 180.045C745.047 178.329 745.066 176.267 744.111 174.54L736.239 160.252C737.709 158.707 739.266 157.232 740.891 155.846L755.977 163.301C757.795 164.2 759.978 164.182 761.783 163.266C764.308 161.985 767.006 160.928 769.81 160.129C771.777 159.571 773.327 158.119 773.948 156.263L779.059 140.847C781.323 140.718 783.327 140.718 785.597 140.847L790.709 156.263C791.329 158.119 792.873 159.565 794.846 160.129C797.656 160.928 800.354 161.985 802.867 163.266C804.678 164.188 806.855 164.206 808.679 163.301L823.765 155.846C825.396 157.238 826.953 158.713 828.417 160.252L820.546 174.54C819.596 176.261 819.609 178.329 820.583 180.039C821.935 182.43 823.052 184.986 823.895 187.641C824.485 189.504 826.017 190.972 827.977 191.56L844.254 196.401C844.328 197.476 844.359 198.504 844.359 199.497C844.359 200.49 844.328 201.518 844.254 202.593L827.977 207.434Z" fill="#6B6161"/>
<path d="M851.921 212.628C854.253 211.934 855.941 210.002 856.22 207.699C856.592 204.732 856.766 202.047 856.766 199.497C856.766 196.947 856.592 194.262 856.226 191.296C855.947 188.993 854.26 187.06 851.927 186.366L834.726 181.249C834.211 179.916 833.64 178.606 833.014 177.325L841.351 162.197C842.48 160.146 842.232 157.655 840.718 155.834C837.127 151.534 832.995 147.621 828.442 144.207C826.519 142.768 823.889 142.539 821.724 143.602L805.739 151.498C804.386 150.911 803.003 150.37 801.595 149.883L796.192 133.591C795.46 131.382 793.419 129.784 790.988 129.52C784.71 128.827 779.94 128.827 773.662 129.52C771.231 129.784 769.19 131.382 768.458 133.591L763.055 149.883C761.647 150.37 760.264 150.911 758.911 151.504L742.938 143.608C740.773 142.545 738.149 142.774 736.22 144.207C731.68 147.609 727.548 151.522 723.944 155.834C722.425 157.655 722.176 160.14 723.305 162.197L731.636 177.325C731.016 178.606 730.445 179.916 729.93 181.249L712.729 186.366C710.397 187.06 708.709 188.993 708.43 191.296C708.064 194.262 707.891 196.947 707.891 199.497C707.891 202.047 708.064 204.732 708.43 207.699C708.709 210.002 710.397 211.934 712.729 212.628L729.93 217.745C730.445 219.078 731.016 220.389 731.642 221.669L723.305 236.797C722.176 238.848 722.425 241.339 723.938 243.16C727.53 247.461 731.661 251.373 736.214 254.787C738.131 256.226 740.767 256.455 742.932 255.392L758.905 247.502C760.257 248.089 761.641 248.63 763.049 249.117L768.452 265.409C769.184 267.618 771.225 269.216 773.656 269.48C776.801 269.833 779.636 269.997 782.328 269.997C785.02 269.997 787.855 269.833 790.988 269.486C793.419 269.222 795.46 267.624 796.192 265.415L801.595 249.123C803.003 248.636 804.386 248.095 805.739 247.502L821.712 255.398C823.877 256.467 826.507 256.238 828.43 254.798C832.97 251.397 837.102 247.484 840.706 243.172C842.225 241.351 842.474 238.865 841.345 236.809L833.008 221.681C833.634 220.4 834.205 219.09 834.72 217.757L851.921 212.628ZM827.977 207.434C826.017 208.022 824.491 209.485 823.895 211.353C823.052 214.008 821.935 216.564 820.583 218.955C819.609 220.671 819.59 222.733 820.546 224.454L828.417 238.742C826.947 240.287 825.39 241.762 823.765 243.148L808.679 235.693C806.855 234.788 804.678 234.812 802.873 235.728C800.348 237.009 797.65 238.066 794.846 238.865C792.88 239.424 791.329 240.875 790.709 242.731L785.597 258.147C783.333 258.276 781.329 258.276 779.059 258.147L773.948 242.731C773.327 240.875 771.783 239.429 769.81 238.865C767 238.066 764.302 237.009 761.79 235.728C759.978 234.806 757.801 234.788 755.977 235.693L740.891 243.148C739.26 241.756 737.703 240.281 736.239 238.742L744.111 224.454C745.06 222.733 745.047 220.665 744.073 218.955C742.721 216.564 741.605 214.008 740.761 211.353C740.172 209.49 738.64 208.022 736.679 207.434L720.402 202.593C720.328 201.518 720.297 200.49 720.297 199.497C720.297 198.504 720.328 197.476 720.402 196.401L736.679 191.56C738.64 190.972 740.165 189.51 740.761 187.641C741.605 184.98 742.721 182.424 744.073 180.045C745.047 178.329 745.066 176.267 744.111 174.54L736.239 160.252C737.709 158.707 739.266 157.232 740.891 155.846L755.977 163.301C757.795 164.2 759.978 164.182 761.783 163.266C764.308 161.985 767.006 160.928 769.81 160.129C771.777 159.571 773.327 158.119 773.948 156.263L779.059 140.847C781.323 140.718 783.327 140.718 785.597 140.847L790.709 156.263C791.329 158.119 792.873 159.565 794.846 160.129C797.656 160.928 800.354 161.985 802.867 163.266C804.678 164.188 806.855 164.206 808.679 163.301L823.765 155.846C825.396 157.238 826.953 158.713 828.417 160.252L820.546 174.54C819.596 176.261 819.609 178.329 820.583 180.039C821.935 182.43 823.052 184.986 823.895 187.641C824.485 189.504 826.017 190.972 827.977 191.56L844.254 196.401C844.328 197.476 844.359 198.504 844.359 199.497C844.359 200.49 844.328 201.518 844.254 202.593L827.977 207.434Z" stroke="black" stroke-width="16" mask="url(#path-2-inside-1)"/>
<path d="M851.921 212.628C854.253 211.934 855.941 210.002 856.22 207.699C856.592 204.732 856.766 202.047 856.766 199.497C856.766 196.947 856.592 194.262 856.226 191.296C855.947 188.993 854.26 187.06 851.927 186.366L834.726 181.249C834.211 179.916 833.64 178.606 833.014 177.325L841.351 162.197C842.48 160.146 842.232 157.655 840.718 155.834C837.127 151.534 832.995 147.621 828.442 144.207C826.519 142.768 823.889 142.539 821.724 143.602L805.739 151.498C804.386 150.911 803.003 150.37 801.595 149.883L796.192 133.591C795.46 131.382 793.419 129.784 790.988 129.52C784.71 128.827 779.94 128.827 773.662 129.52C771.231 129.784 769.19 131.382 768.458 133.591L763.055 149.883C761.647 150.37 760.264 150.911 758.911 151.504L742.938 143.608C740.773 142.545 738.149 142.774 736.22 144.207C731.68 147.609 727.548 151.522 723.944 155.834C722.425 157.655 722.176 160.14 723.305 162.197L731.636 177.325C731.016 178.606 730.445 179.916 729.93 181.249L712.729 186.366C710.397 187.06 708.709 188.993 708.43 191.296C708.064 194.262 707.891 196.947 707.891 199.497C707.891 202.047 708.064 204.732 708.43 207.699C708.709 210.002 710.397 211.934 712.729 212.628L729.93 217.745C730.445 219.078 731.016 220.389 731.642 221.669L723.305 236.797C722.176 238.848 722.425 241.339 723.938 243.16C727.53 247.461 731.661 251.373 736.214 254.787C738.131 256.226 740.767 256.455 742.932 255.392L758.905 247.502C760.257 248.089 761.641 248.63 763.049 249.117L768.452 265.409C769.184 267.618 771.225 269.216 773.656 269.48C776.801 269.833 779.636 269.997 782.328 269.997C785.02 269.997 787.855 269.833 790.988 269.486C793.419 269.222 795.46 267.624 796.192 265.415L801.595 249.123C803.003 248.636 804.386 248.095 805.739 247.502L821.712 255.398C823.877 256.467 826.507 256.238 828.43 254.798C832.97 251.397 837.102 247.484 840.706 243.172C842.225 241.351 842.474 238.865 841.345 236.809L833.008 221.681C833.634 220.4 834.205 219.09 834.72 217.757L851.921 212.628ZM827.977 207.434C826.017 208.022 824.491 209.485 823.895 211.353C823.052 214.008 821.935 216.564 820.583 218.955C819.609 220.671 819.59 222.733 820.546 224.454L828.417 238.742C826.947 240.287 825.39 241.762 823.765 243.148L808.679 235.693C806.855 234.788 804.678 234.812 802.873 235.728C800.348 237.009 797.65 238.066 794.846 238.865C792.88 239.424 791.329 240.875 790.709 242.731L785.597 258.147C783.333 258.276 781.329 258.276 779.059 258.147L773.948 242.731C773.327 240.875 771.783 239.429 769.81 238.865C767 238.066 764.302 237.009 761.79 235.728C759.978 234.806 757.801 234.788 755.977 235.693L740.891 243.148C739.26 241.756 737.703 240.281 736.239 238.742L744.111 224.454C745.06 222.733 745.047 220.665 744.073 218.955C742.721 216.564 741.605 214.008 740.761 211.353C740.172 209.49 738.64 208.022 736.679 207.434L720.402 202.593C720.328 201.518 720.297 200.49 720.297 199.497C720.297 198.504 720.328 197.476 720.402 196.401L736.679 191.56C738.64 190.972 740.165 189.51 740.761 187.641C741.605 184.98 742.721 182.424 744.073 180.045C745.047 178.329 745.066 176.267 744.111 174.54L736.239 160.252C737.709 158.707 739.266 157.232 740.891 155.846L755.977 163.301C757.795 164.2 759.978 164.182 761.783 163.266C764.308 161.985 767.006 160.928 769.81 160.129C771.777 159.571 773.327 158.119 773.948 156.263L779.059 140.847C781.323 140.718 783.327 140.718 785.597 140.847L790.709 156.263C791.329 158.119 792.873 159.565 794.846 160.129C797.656 160.928 800.354 161.985 802.867 163.266C804.678 164.188 806.855 164.206 808.679 163.301L823.765 155.846C825.396 157.238 826.953 158.713 828.417 160.252L820.546 174.54C819.596 176.261 819.609 178.329 820.583 180.039C821.935 182.43 823.052 184.986 823.895 187.641C824.485 189.504 826.017 190.972 827.977 191.56L844.254 196.401C844.328 197.476 844.359 198.504 844.359 199.497C844.359 200.49 844.328 201.518 844.254 202.593L827.977 207.434Z" stroke="url(#paint1_linear)" stroke-width="16" mask="url(#path-2-inside-1)"/>
<g filter="url(#filter0_dddd)">
<path d="M895.61 322.661L884.953 319.077C884.345 317.438 883.65 315.834 882.862 314.277L887.707 304.613C888.718 302.603 888.439 300.23 886.987 298.479C883.886 294.725 880.3 291.323 876.324 288.374C874.469 286.999 871.951 286.741 869.842 287.693L859.631 292.281C857.994 291.541 856.3 290.877 854.57 290.307L850.78 280.214C849.992 278.116 848.013 276.618 845.681 276.348C840.154 275.719 836.153 275.719 830.626 276.348C828.293 276.612 826.314 278.11 825.527 280.214L821.743 290.307C820.012 290.883 818.319 291.541 816.675 292.287L806.471 287.698C804.362 286.747 801.849 287.011 799.995 288.38C796.031 291.317 792.439 294.713 789.325 298.479C787.88 300.23 787.601 302.609 788.606 304.618L793.45 314.289C792.669 315.84 791.968 317.444 791.366 319.083L780.709 322.672C778.495 323.418 776.913 325.293 776.627 327.502C776.286 330.104 776.125 332.437 776.125 334.622C776.125 336.808 776.286 339.134 776.621 341.748C776.9 343.957 778.482 345.832 780.703 346.578L791.36 350.161C791.968 351.801 792.663 353.404 793.45 354.961L788.606 364.626C787.595 366.635 787.874 369.008 789.325 370.759C792.427 374.513 796.012 377.915 799.988 380.864C801.837 382.233 804.355 382.497 806.471 381.546L816.681 376.957C818.319 377.698 820.012 378.361 821.743 378.931L825.533 389.025C826.321 391.122 828.299 392.62 830.632 392.89C833.392 393.219 835.849 393.372 838.156 393.372C840.464 393.372 842.92 393.219 845.681 392.902C848.013 392.638 849.992 391.14 850.78 389.036L854.564 378.943C856.294 378.367 857.988 377.709 859.631 376.963L869.836 381.552C871.951 382.509 874.469 382.251 876.312 380.87C880.275 377.933 883.867 374.537 886.981 370.771C888.426 369.02 888.706 366.641 887.701 364.632L882.856 354.961C883.638 353.41 884.339 351.806 884.94 350.167L895.597 346.578C897.812 345.832 899.393 343.957 899.679 341.748C900.026 339.134 900.188 336.808 900.188 334.622C900.188 332.437 900.026 330.11 899.691 327.496C899.412 325.281 897.83 323.413 895.61 322.661V322.661ZM887.719 336.766L877.887 340.074C875.983 340.714 874.525 342.195 873.986 344.04C873.173 346.83 872.013 349.492 870.543 351.953C869.55 353.616 869.476 355.637 870.338 357.364L874.792 366.253C873.762 367.322 872.683 368.345 871.56 369.314L862.175 365.096C860.363 364.279 858.223 364.35 856.462 365.29C853.856 366.688 851.046 367.781 848.112 368.55C846.164 369.061 844.601 370.442 843.919 372.246L840.427 381.557C838.925 381.634 837.399 381.634 835.898 381.557L832.406 372.246C831.73 370.442 830.167 369.061 828.219 368.55C825.272 367.781 822.462 366.682 819.863 365.29C818.108 364.355 815.98 364.285 814.15 365.096L804.765 369.314C803.636 368.339 802.557 367.316 801.533 366.253L805.987 357.364C806.855 355.637 806.775 353.616 805.782 351.953C804.306 349.486 803.152 346.824 802.339 344.046C801.8 342.201 800.342 340.72 798.438 340.074L788.606 336.766C788.556 336.056 788.531 335.345 788.531 334.622C788.531 333.899 788.556 333.183 788.593 332.478L798.425 329.164C800.33 328.524 801.787 327.043 802.321 325.199C803.14 322.402 804.3 319.747 805.77 317.285C806.762 315.622 806.837 313.601 805.974 311.874L801.521 302.985C802.55 301.916 803.63 300.894 804.752 299.924L814.138 304.143C815.961 304.965 818.095 304.895 819.851 303.949C822.456 302.55 825.266 301.458 828.2 300.688C830.148 300.177 831.711 298.796 832.394 296.993L835.886 287.681C837.387 287.604 838.913 287.604 840.414 287.681L843.907 296.993C844.583 298.796 846.146 300.177 848.094 300.688C851.04 301.458 853.85 302.556 856.449 303.949C858.211 304.895 860.339 304.965 862.162 304.143L871.548 299.924C872.677 300.9 873.756 301.922 874.779 302.985L870.326 311.874C869.457 313.601 869.538 315.622 870.53 317.285C872.007 319.752 873.16 322.414 873.973 325.193C874.513 327.037 875.97 328.518 877.875 329.164L887.707 332.472C887.756 333.189 887.781 333.899 887.781 334.622C887.781 335.345 887.756 336.056 887.719 336.766V336.766Z" fill="#6B6161"/>
<path d="M895.61 322.661L884.953 319.077C884.345 317.438 883.65 315.834 882.862 314.277L887.707 304.613C888.718 302.603 888.439 300.23 886.987 298.479C883.886 294.725 880.3 291.323 876.324 288.374C874.469 286.999 871.951 286.741 869.842 287.693L859.631 292.281C857.994 291.541 856.3 290.877 854.57 290.307L850.78 280.214C849.992 278.116 848.013 276.618 845.681 276.348C840.154 275.719 836.153 275.719 830.626 276.348C828.293 276.612 826.314 278.11 825.527 280.214L821.743 290.307C820.012 290.883 818.319 291.541 816.675 292.287L806.471 287.698C804.362 286.747 801.849 287.011 799.995 288.38C796.031 291.317 792.439 294.713 789.325 298.479C787.88 300.23 787.601 302.609 788.606 304.618L793.45 314.289C792.669 315.84 791.968 317.444 791.366 319.083L780.709 322.672C778.495 323.418 776.913 325.293 776.627 327.502C776.286 330.104 776.125 332.437 776.125 334.622C776.125 336.808 776.286 339.134 776.621 341.748C776.9 343.957 778.482 345.832 780.703 346.578L791.36 350.161C791.968 351.801 792.663 353.404 793.45 354.961L788.606 364.626C787.595 366.635 787.874 369.008 789.325 370.759C792.427 374.513 796.012 377.915 799.988 380.864C801.837 382.233 804.355 382.497 806.471 381.546L816.681 376.957C818.319 377.698 820.012 378.361 821.743 378.931L825.533 389.025C826.321 391.122 828.299 392.62 830.632 392.89C833.392 393.219 835.849 393.372 838.156 393.372C840.464 393.372 842.92 393.219 845.681 392.902C848.013 392.638 849.992 391.14 850.78 389.036L854.564 378.943C856.294 378.367 857.988 377.709 859.631 376.963L869.836 381.552C871.951 382.509 874.469 382.251 876.312 380.87C880.275 377.933 883.867 374.537 886.981 370.771C888.426 369.02 888.706 366.641 887.701 364.632L882.856 354.961C883.638 353.41 884.339 351.806 884.94 350.167L895.597 346.578C897.812 345.832 899.393 343.957 899.679 341.748C900.026 339.134 900.188 336.808 900.188 334.622C900.188 332.437 900.026 330.11 899.691 327.496C899.412 325.281 897.83 323.413 895.61 322.661V322.661ZM887.719 336.766L877.887 340.074C875.983 340.714 874.525 342.195 873.986 344.04C873.173 346.83 872.013 349.492 870.543 351.953C869.55 353.616 869.476 355.637 870.338 357.364L874.792 366.253C873.762 367.322 872.683 368.345 871.56 369.314L862.175 365.096C860.363 364.279 858.223 364.35 856.462 365.29C853.856 366.688 851.046 367.781 848.112 368.55C846.164 369.061 844.601 370.442 843.919 372.246L840.427 381.557C838.925 381.634 837.399 381.634 835.898 381.557L832.406 372.246C831.73 370.442 830.167 369.061 828.219 368.55C825.272 367.781 822.462 366.682 819.863 365.29C818.108 364.355 815.98 364.285 814.15 365.096L804.765 369.314C803.636 368.339 802.557 367.316 801.533 366.253L805.987 357.364C806.855 355.637 806.775 353.616 805.782 351.953C804.306 349.486 803.152 346.824 802.339 344.046C801.8 342.201 800.342 340.72 798.438 340.074L788.606 336.766C788.556 336.056 788.531 335.345 788.531 334.622C788.531 333.899 788.556 333.183 788.593 332.478L798.425 329.164C800.33 328.524 801.787 327.043 802.321 325.199C803.14 322.402 804.3 319.747 805.77 317.285C806.762 315.622 806.837 313.601 805.974 311.874L801.521 302.985C802.55 301.916 803.63 300.894 804.752 299.924L814.138 304.143C815.961 304.965 818.095 304.895 819.851 303.949C822.456 302.55 825.266 301.458 828.2 300.688C830.148 300.177 831.711 298.796 832.394 296.993L835.886 287.681C837.387 287.604 838.913 287.604 840.414 287.681L843.907 296.993C844.583 298.796 846.146 300.177 848.094 300.688C851.04 301.458 853.85 302.556 856.449 303.949C858.211 304.895 860.339 304.965 862.162 304.143L871.548 299.924C872.677 300.9 873.756 301.922 874.779 302.985L870.326 311.874C869.457 313.601 869.538 315.622 870.53 317.285C872.007 319.752 873.16 322.414 873.973 325.193C874.513 327.037 875.97 328.518 877.875 329.164L887.707 332.472C887.756 333.189 887.781 333.899 887.781 334.622C887.781 335.345 887.756 336.056 887.719 336.766V336.766Z" fill="url(#paint2_linear)"/>
</g>
<g filter="url(#filter1_ddddd)">
<path d="M528.136 266.231L537.664 273.757C566.069 241.497 607.76 222.997 652.063 222.997C655.22 222.997 658.371 223.168 661.522 223.356L653.88 230.593L662.651 238.901L681.261 221.276C683.686 218.979 683.686 215.266 681.261 212.968L662.651 195.344L653.88 203.651L662.31 211.635C658.898 211.429 655.48 211.247 652.063 211.247C604.075 211.247 558.904 231.287 528.136 266.231V266.231Z" fill="#CEC6C6"/>
</g>
<g filter="url(#filter2_dddd)">
<path d="M782.328 170.122C765.226 170.122 751.312 183.3 751.312 199.497C751.312 215.694 765.226 228.872 782.328 228.872C799.43 228.872 813.344 215.694 813.344 199.497C813.344 183.3 799.43 170.122 782.328 170.122ZM782.328 217.122C772.068 217.122 763.719 209.214 763.719 199.497C763.719 189.78 772.068 181.872 782.328 181.872C792.588 181.872 800.938 189.78 800.938 199.497C800.938 209.214 792.588 217.122 782.328 217.122Z" fill="#6B6161"/>
</g>
<g filter="url(#filter3_dddd)">
<path d="M838.156 311.122C824.472 311.122 813.344 321.662 813.344 334.622C813.344 347.582 824.472 358.122 838.156 358.122C851.84 358.122 862.969 347.582 862.969 334.622C862.969 321.662 851.84 311.122 838.156 311.122ZM838.156 346.372C831.314 346.372 825.75 341.102 825.75 334.622C825.75 328.142 831.314 322.872 838.156 322.872C844.998 322.872 850.562 328.142 850.562 334.622C850.562 341.102 844.998 346.372 838.156 346.372Z" fill="black"/>
</g>
<g filter="url(#filter4_dddd)">
<path d="M895.2 146.74L864.185 140.865C860.81 140.218 857.553 142.292 856.884 145.471L850.68 174.846L862.845 177.154L866.188 161.339C872.199 173.183 875.375 186.237 875.375 199.497C875.375 219.754 868.316 238.801 854.967 254.575L864.65 261.925C879.568 244.294 887.781 222.128 887.781 199.497C887.781 184.11 884.028 168.941 876.889 155.252L892.769 158.26L895.2 146.74Z" fill="#847C7C"/>
</g>
<defs>
<filter id="filter0_dddd" x="772.125" y="275.876" width="132.062" height="125.496" filterUnits="userSpaceOnUse" color-interpolation-filters="sRGB">
<feFlood flood-opacity="0" result="BackgroundImageFix"/>
<feColorMatrix in="SourceAlpha" type="matrix" values="0 0 0 0 0 0 0 0 0 0 0 0 0 0 0 0 0 0 127 0"/>
<feOffset dy="4"/>
<feGaussianBlur stdDeviation="2"/>
<feColorMatrix type="matrix" values="0 0 0 0 0 0 0 0 0 0 0 0 0 0 0 0 0 0 0.25 0"/>
<feBlend mode="normal" in2="BackgroundImageFix" result="effect1_dropShadow"/>
<feColorMatrix in="SourceAlpha" type="matrix" values="0 0 0 0 0 0 0 0 0 0 0 0 0 0 0 0 0 0 127 0"/>
<feOffset dy="4"/>
<feGaussianBlur stdDeviation="2"/>
<feColorMatrix type="matrix" values="0 0 0 0 0 0 0 0 0 0 0 0 0 0 0 0 0 0 0.25 0"/>
<feBlend mode="normal" in2="effect1_dropShadow" result="effect2_dropShadow"/>
<feColorMatrix in="SourceAlpha" type="matrix" values="0 0 0 0 0 0 0 0 0 0 0 0 0 0 0 0 0 0 127 0"/>
<feOffset dy="4"/>
<feGaussianBlur stdDeviation="2"/>
<feColorMatrix type="matrix" values="0 0 0 0 0 0 0 0 0 0 0 0 0 0 0 0 0 0 0.25 0"/>
<feBlend mode="normal" in2="effect2_dropShadow" result="effect3_dropShadow"/>
<feColorMatrix in="SourceAlpha" type="matrix" values="0 0 0 0 0 0 0 0 0 0 0 0 0 0 0 0 0 0 127 0"/>
<feOffset dy="4"/>
<feGaussianBlur stdDeviation="2"/>
<feColorMatrix type="matrix" values="0 0 0 0 0 0 0 0 0 0 0 0 0 0 0 0 0 0 0.25 0"/>
<feBlend mode="normal" in2="effect3_dropShadow" result="effect4_dropShadow"/>
<feBlend mode="normal" in="SourceGraphic" in2="effect4_dropShadow" result="shape"/>
</filter>
<filter id="filter1_ddddd" x="524.136" y="195.344" width="162.943" height="86.4136" filterUnits="userSpaceOnUse" color-interpolation-filters="sRGB">
<feFlood flood-opacity="0" result="BackgroundImageFix"/>
<feColorMatrix in="SourceAlpha" type="matrix" values="0 0 0 0 0 0 0 0 0 0 0 0 0 0 0 0 0 0 127 0"/>
<feOffset dy="4"/>
<feGaussianBlur stdDeviation="2"/>
<feColorMatrix type="matrix" values="0 0 0 0 0 0 0 0 0 0 0 0 0 0 0 0 0 0 0.25 0"/>
<feBlend mode="normal" in2="BackgroundImageFix" result="effect1_dropShadow"/>
<feColorMatrix in="SourceAlpha" type="matrix" values="0 0 0 0 0 0 0 0 0 0 0 0 0 0 0 0 0 0 127 0"/>
<feOffset dy="4"/>
<feGaussianBlur stdDeviation="2"/>
<feColorMatrix type="matrix" values="0 0 0 0 0 0 0 0 0 0 0 0 0 0 0 0 0 0 0.25 0"/>
<feBlend mode="normal" in2="effect1_dropShadow" result="effect2_dropShadow"/>
<feColorMatrix in="SourceAlpha" type="matrix" values="0 0 0 0 0 0 0 0 0 0 0 0 0 0 0 0 0 0 127 0"/>
<feOffset dy="4"/>
<feGaussianBlur stdDeviation="2"/>
<feColorMatrix type="matrix" values="0 0 0 0 0 0 0 0 0 0 0 0 0 0 0 0 0 0 0.25 0"/>
<feBlend mode="normal" in2="effect2_dropShadow" result="effect3_dropShadow"/>
<feColorMatrix in="SourceAlpha" type="matrix" values="0 0 0 0 0 0 0 0 0 0 0 0 0 0 0 0 0 0 127 0"/>
<feOffset dy="4"/>
<feGaussianBlur stdDeviation="2"/>
<feColorMatrix type="matrix" values="0 0 0 0 0 0 0 0 0 0 0 0 0 0 0 0 0 0 0.25 0"/>
<feBlend mode="normal" in2="effect3_dropShadow" result="effect4_dropShadow"/>
<feColorMatrix in="SourceAlpha" type="matrix" values="0 0 0 0 0 0 0 0 0 0 0 0 0 0 0 0 0 0 127 0"/>
<feOffset dy="4"/>
<feGaussianBlur stdDeviation="2"/>
<feColorMatrix type="matrix" values="0 0 0 0 0 0 0 0 0 0 0 0 0 0 0 0 0 0 0.25 0"/>
<feBlend mode="normal" in2="effect4_dropShadow" result="effect5_dropShadow"/>
<feBlend mode="normal" in="SourceGraphic" in2="effect5_dropShadow" result="shape"/>
</filter>
<filter id="filter2_dddd" x="747.312" y="170.122" width="70.0312" height="66.75" filterUnits="userSpaceOnUse" color-interpolation-filters="sRGB">
<feFlood flood-opacity="0" result="BackgroundImageFix"/>
<feColorMatrix in="SourceAlpha" type="matrix" values="0 0 0 0 0 0 0 0 0 0 0 0 0 0 0 0 0 0 127 0"/>
<feOffset dy="4"/>
<feGaussianBlur stdDeviation="2"/>
<feColorMatrix type="matrix" values="0 0 0 0 0 0 0 0 0 0 0 0 0 0 0 0 0 0 0.25 0"/>
<feBlend mode="normal" in2="BackgroundImageFix" result="effect1_dropShadow"/>
<feColorMatrix in="SourceAlpha" type="matrix" values="0 0 0 0 0 0 0 0 0 0 0 0 0 0 0 0 0 0 127 0"/>
<feOffset dy="4"/>
<feGaussianBlur stdDeviation="2"/>
<feColorMatrix type="matrix" values="0 0 0 0 0 0 0 0 0 0 0 0 0 0 0 0 0 0 0.25 0"/>
<feBlend mode="normal" in2="effect1_dropShadow" result="effect2_dropShadow"/>
<feColorMatrix in="SourceAlpha" type="matrix" values="0 0 0 0 0 0 0 0 0 0 0 0 0 0 0 0 0 0 127 0"/>
<feOffset dy="4"/>
<feGaussianBlur stdDeviation="2"/>
<feColorMatrix type="matrix" values="0 0 0 0 0 0 0 0 0 0 0 0 0 0 0 0 0 0 0.25 0"/>
<feBlend mode="normal" in2="effect2_dropShadow" result="effect3_dropShadow"/>
<feColorMatrix in="SourceAlpha" type="matrix" values="0 0 0 0 0 0 0 0 0 0 0 0 0 0 0 0 0 0 127 0"/>
<feOffset dy="4"/>
<feGaussianBlur stdDeviation="2"/>
<feColorMatrix type="matrix" values="0 0 0 0 0 0 0 0 0 0 0 0 0 0 0 0 0 0 0.25 0"/>
<feBlend mode="normal" in2="effect3_dropShadow" result="effect4_dropShadow"/>
<feBlend mode="normal" in="SourceGraphic" in2="effect4_dropShadow" result="shape"/>
</filter>
<filter id="filter3_dddd" x="809.344" y="311.122" width="57.625" height="55" filterUnits="userSpaceOnUse" color-interpolation-filters="sRGB">
<feFlood flood-opacity="0" result="BackgroundImageFix"/>
<feColorMatrix in="SourceAlpha" type="matrix" values="0 0 0 0 0 0 0 0 0 0 0 0 0 0 0 0 0 0 127 0"/>
<feOffset dy="4"/>
<feGaussianBlur stdDeviation="2"/>
<feColorMatrix type="matrix" values="0 0 0 0 0 0 0 0 0 0 0 0 0 0 0 0 0 0 0.25 0"/>
<feBlend mode="normal" in2="BackgroundImageFix" result="effect1_dropShadow"/>
<feColorMatrix in="SourceAlpha" type="matrix" values="0 0 0 0 0 0 0 0 0 0 0 0 0 0 0 0 0 0 127 0"/>
<feOffset dy="4"/>
<feGaussianBlur stdDeviation="2"/>
<feColorMatrix type="matrix" values="0 0 0 0 0 0 0 0 0 0 0 0 0 0 0 0 0 0 0.25 0"/>
<feBlend mode="normal" in2="effect1_dropShadow" result="effect2_dropShadow"/>
<feColorMatrix in="SourceAlpha" type="matrix" values="0 0 0 0 0 0 0 0 0 0 0 0 0 0 0 0 0 0 127 0"/>
<feOffset dy="4"/>
<feGaussianBlur stdDeviation="2"/>
<feColorMatrix type="matrix" values="0 0 0 0 0 0 0 0 0 0 0 0 0 0 0 0 0 0 0.25 0"/>
<feBlend mode="normal" in2="effect2_dropShadow" result="effect3_dropShadow"/>
<feColorMatrix in="SourceAlpha" type="matrix" values="0 0 0 0 0 0 0 0 0 0 0 0 0 0 0 0 0 0 127 0"/>
<feOffset dy="4"/>
<feGaussianBlur stdDeviation="2"/>
<feColorMatrix type="matrix" values="0 0 0 0 0 0 0 0 0 0 0 0 0 0 0 0 0 0 0.25 0"/>
<feBlend mode="normal" in2="effect3_dropShadow" result="effect4_dropShadow"/>
<feBlend mode="normal" in="SourceGraphic" in2="effect4_dropShadow" result="shape"/>
</filter>
<filter id="filter4_dddd" x="846.68" y="140.747" width="52.5198" height="129.178" filterUnits="userSpaceOnUse" color-interpolation-filters="sRGB">
<feFlood flood-opacity="0" result="BackgroundImageFix"/>
<feColorMatrix in="SourceAlpha" type="matrix" values="0 0 0 0 0 0 0 0 0 0 0 0 0 0 0 0 0 0 127 0"/>
<feOffset dy="4"/>
<feGaussianBlur stdDeviation="2"/>
<feColorMatrix type="matrix" values="0 0 0 0 0 0 0 0 0 0 0 0 0 0 0 0 0 0 0.25 0"/>
<feBlend mode="normal" in2="BackgroundImageFix" result="effect1_dropShadow"/>
<feColorMatrix in="SourceAlpha" type="matrix" values="0 0 0 0 0 0 0 0 0 0 0 0 0 0 0 0 0 0 127 0"/>
<feOffset dy="4"/>
<feGaussianBlur stdDeviation="2"/>
<feColorMatrix type="matrix" values="0 0 0 0 0 0 0 0 0 0 0 0 0 0 0 0 0 0 0.25 0"/>
<feBlend mode="normal" in2="effect1_dropShadow" result="effect2_dropShadow"/>
<feColorMatrix in="SourceAlpha" type="matrix" values="0 0 0 0 0 0 0 0 0 0 0 0 0 0 0 0 0 0 127 0"/>
<feOffset dy="4"/>
<feGaussianBlur stdDeviation="2"/>
<feColorMatrix type="matrix" values="0 0 0 0 0 0 0 0 0 0 0 0 0 0 0 0 0 0 0.25 0"/>
<feBlend mode="normal" in2="effect2_dropShadow" result="effect3_dropShadow"/>
<feColorMatrix in="SourceAlpha" type="matrix" values="0 0 0 0 0 0 0 0 0 0 0 0 0 0 0 0 0 0 127 0"/>
<feOffset dy="4"/>
<feGaussianBlur stdDeviation="2"/>
<feColorMatrix type="matrix" values="0 0 0 0 0 0 0 0 0 0 0 0 0 0 0 0 0 0 0.25 0"/>
<feBlend mode="normal" in2="effect3_dropShadow" result="effect4_dropShadow"/>
<feBlend mode="normal" in="SourceGraphic" in2="effect4_dropShadow" result="shape"/>
</filter>
<linearGradient id="paint0_linear" x1="720" y1="0" x2="720" y2="900" gradientUnits="userSpaceOnUse">
<stop stop-color="#FF0202"/>
<stop offset="0.515625" stop-color="#8B0202"/>
</linearGradient>
<linearGradient id="paint1_linear" x1="782.328" y1="129" x2="782.328" y2="269.997" gradientUnits="userSpaceOnUse">
<stop stop-color="white"/>
<stop offset="1" stop-color="white" stop-opacity="0"/>
</linearGradient>
<linearGradient id="paint2_linear" x1="838.156" y1="275.876" x2="838.156" y2="393.372" gradientUnits="userSpaceOnUse">
<stop stop-color="white"/>
<stop offset="1" stop-color="white" stop-opacity="0"/>
</linearGradient>
</defs>
</svg>
