<svg width="110" height="114" viewBox="0 0 110 114" fill="none" xmlns="http://www.w3.org/2000/svg">
<path d="M55 0C24.673 0 0 25.5702 0 57C0 70.7655 4.73367 83.4062 12.6023 93.2672C12.6225 93.2957 12.6243 93.3318 12.6463 93.3584C18.3278 100.459 25.4632 105.902 33.4143 109.419C33.506 109.459 33.5958 109.503 33.6875 109.543C34.331 109.824 34.9818 110.084 35.6345 110.339C35.8912 110.439 36.1478 110.542 36.4082 110.639C36.971 110.848 37.5375 111.045 38.1077 111.235C38.4725 111.357 38.8373 111.477 39.2058 111.591C39.71 111.747 40.216 111.897 40.7257 112.039C41.173 112.165 41.624 112.28 42.075 112.393C42.5315 112.507 42.9898 112.621 43.45 112.721C43.9633 112.835 44.4822 112.936 45.0028 113.035C45.4208 113.115 45.837 113.198 46.2587 113.269C46.8362 113.365 47.4173 113.441 48.0003 113.519C48.3762 113.569 48.7502 113.626 49.1278 113.668C49.7878 113.74 50.4533 113.791 51.1207 113.839C51.4305 113.861 51.7385 113.895 52.0502 113.913C53.0237 113.97 54.0082 114 55 114C55.9918 114 56.9763 113.97 57.9535 113.916C58.2652 113.899 58.5732 113.865 58.883 113.842C59.5503 113.793 60.2158 113.743 60.8758 113.671C61.2535 113.629 61.6275 113.572 62.0033 113.523C62.5863 113.445 63.1675 113.369 63.745 113.272C64.1648 113.202 64.5828 113.118 65.0008 113.039C65.5197 112.94 66.0385 112.839 66.5537 112.725C67.0138 112.622 67.4703 112.51 67.9287 112.396C68.3797 112.282 68.8307 112.167 69.278 112.043C69.7877 111.902 70.2937 111.75 70.7978 111.595C71.1663 111.481 71.5312 111.361 71.896 111.239C72.4662 111.049 73.0327 110.852 73.5955 110.643C73.854 110.546 74.1107 110.443 74.3692 110.343C75.0237 110.088 75.6727 109.826 76.3162 109.546C76.4078 109.506 76.4977 109.463 76.5893 109.423C84.5387 105.906 91.6758 100.462 97.3573 93.3622C97.3793 93.3356 97.3812 93.2976 97.4013 93.271C105.266 83.4062 110 70.7655 110 57C110 25.5702 85.327 0 55 0ZM77.2878 104.918C77.2603 104.931 77.2347 104.946 77.2072 104.96C76.5527 105.287 75.8872 105.594 75.2162 105.895C75.064 105.961 74.9137 106.029 74.7615 106.096C74.1748 106.351 73.5808 106.592 72.9832 106.824C72.7338 106.921 72.4845 107.016 72.2333 107.107C71.7035 107.303 71.1718 107.491 70.6347 107.669C70.301 107.779 69.9655 107.884 69.63 107.986C69.1533 108.135 68.6748 108.277 68.1908 108.41C67.7838 108.522 67.3732 108.625 66.9625 108.726C66.5317 108.832 66.1027 108.94 65.6682 109.035C65.1933 109.14 64.7148 109.229 64.2382 109.318C63.8513 109.392 63.4663 109.47 63.0758 109.535C62.5387 109.622 61.996 109.693 61.4552 109.763C61.1123 109.809 60.7713 109.862 60.4248 109.9C59.807 109.968 59.1837 110.012 58.5622 110.057C58.2853 110.076 58.0103 110.109 57.7298 110.124C56.8223 110.173 55.913 110.2 55 110.2C54.087 110.2 53.1777 110.173 52.272 110.124C51.9933 110.109 51.7183 110.078 51.4397 110.057C50.8163 110.014 50.1948 109.968 49.577 109.9C49.2305 109.862 48.8895 109.809 48.5467 109.763C48.0058 109.693 47.4632 109.622 46.926 109.535C46.5355 109.47 46.1505 109.392 45.7637 109.318C45.2852 109.229 44.8067 109.138 44.3337 109.035C43.8992 108.94 43.4683 108.832 43.0393 108.726C42.6287 108.623 42.218 108.522 41.811 108.41C41.3288 108.277 40.8485 108.133 40.3718 107.986C40.0363 107.884 39.7008 107.779 39.3672 107.669C38.83 107.491 38.2965 107.303 37.7685 107.107C37.5173 107.014 37.268 106.919 37.0187 106.824C36.421 106.592 35.827 106.351 35.2403 106.096C35.0882 106.031 34.9397 105.963 34.7875 105.896C34.1165 105.598 33.451 105.288 32.7947 104.962C32.7672 104.948 32.7415 104.935 32.714 104.92C26.3175 101.713 20.6672 97.1603 16.082 91.6313C19.6258 78.1071 29.6578 67.2049 42.5645 62.8672C42.8193 63.0287 43.0852 63.1731 43.3473 63.3251C43.5013 63.4144 43.6535 63.5094 43.8093 63.5949C44.3557 63.8951 44.9093 64.1763 45.4758 64.429C45.9103 64.6266 46.3595 64.7938 46.8068 64.9648C46.8948 64.9971 46.9828 65.0332 47.0708 65.0655C49.5568 65.9775 52.217 66.5 55 66.5C57.783 66.5 60.4432 65.9775 62.9273 65.0655C63.0153 65.0332 63.1033 64.9971 63.1913 64.9648C63.6387 64.7938 64.0878 64.6266 64.5223 64.429C65.0888 64.1763 65.6425 63.8951 66.1888 63.5949C66.3447 63.5075 66.4968 63.4144 66.6508 63.3251C66.913 63.1731 67.1807 63.0287 67.4373 62.8653C80.344 67.2049 90.3742 78.1071 93.9198 91.6294C89.3347 97.1565 83.6843 101.709 77.2878 104.918ZM34.8333 41.8C34.8333 30.2765 43.8808 20.9 55 20.9C66.1192 20.9 75.1667 30.2765 75.1667 41.8C75.1667 49.1302 71.4982 55.5807 65.9707 59.3123C65.2483 59.7987 64.4967 60.2338 63.7248 60.6138C63.6332 60.6594 63.5433 60.7069 63.4517 60.7506C58.1423 63.2529 51.8577 63.2529 46.5483 60.7506C46.4567 60.7069 46.365 60.6594 46.2752 60.6138C45.5015 60.2338 44.7517 59.7987 44.0293 59.3123C38.5018 55.5807 34.8333 49.1302 34.8333 41.8ZM96.6698 88.0137C92.5137 75.2951 83.0317 65.0161 70.917 60.1331C75.7625 55.6092 78.8333 49.077 78.8333 41.8C78.8333 28.1808 68.1413 17.1 55 17.1C41.8587 17.1 31.1667 28.1808 31.1667 41.8C31.1667 49.077 34.2375 55.6092 39.0848 60.1331C26.9702 65.018 17.4882 75.2951 13.332 88.0137C7.25817 79.2756 3.66667 68.5672 3.66667 57C3.66667 27.6659 26.6952 3.8 55 3.8C83.3048 3.8 106.333 27.6659 106.333 57C106.333 68.5672 102.742 79.2756 96.6698 88.0137Z" fill="black"/>
</svg>
