<svg width="1920" height="1080" viewBox="0 0 1920 1080" fill="none" xmlns="http://www.w3.org/2000/svg">
<rect width="1920" height="1080" transform="matrix(1 0 0 -1 0 1080)" fill="url(#paint0_linear)"/>
<path d="M512.24 693.834C512.782 700.25 517.727 705.572 524.423 706.928L578.44 717.892C580.347 726.553 582.765 735.097 585.694 743.437L544.806 778.285C539.737 782.601 538.28 789.541 541.225 795.359C548.696 810.143 557.019 823.805 565.963 835.966C569.838 841.244 576.937 843.518 583.463 841.55L635.961 825.643C642.239 832.262 648.919 838.546 655.956 844.452L639.045 893.836C636.953 899.945 639.356 906.638 644.982 910.297C657.909 918.71 672.432 926.54 688.149 933.568C694.349 936.338 701.712 934.953 706.3 930.2L743.345 891.736C752.226 894.477 761.31 896.767 770.517 898.56L782.173 949.373C783.614 955.657 789.272 960.309 796.076 960.834C804.322 961.446 812.584 962 821 962C829.416 962 837.678 961.446 845.924 960.834C852.744 960.323 858.402 955.672 859.843 949.373L871.499 898.56C880.706 896.767 889.804 894.492 898.67 891.736L935.715 930.2C940.319 934.968 947.697 936.353 953.866 933.568C969.583 926.54 984.106 918.696 997.033 910.297C1002.66 906.638 1005.06 899.945 1002.97 893.836L986.059 844.452C993.096 838.546 999.777 832.262 1006.05 825.657L1058.55 841.565C1065.05 843.548 1072.16 841.273 1076.05 835.98C1085 823.82 1093.32 810.158 1100.79 795.373C1103.74 789.556 1102.28 782.615 1097.21 778.3L1056.32 743.452C1059.23 735.097 1061.67 726.553 1063.58 717.892L1117.59 706.928C1124.27 705.572 1129.22 700.25 1129.78 693.849C1130.41 686.078 1131 678.306 1131 670.389C1131 662.472 1130.41 654.7 1129.76 646.943C1129.22 640.528 1124.27 635.206 1117.58 633.85L1063.56 622.885C1061.65 614.225 1059.23 605.666 1056.31 597.326L1097.19 562.478C1102.26 558.162 1103.72 551.222 1100.77 545.404C1093.3 530.62 1084.96 516.958 1076.04 504.797C1072.15 499.505 1065.03 497.23 1058.54 499.213L1006.04 515.12C999.761 508.501 993.081 502.217 986.044 496.312L1002.95 446.927C1005.05 440.818 1002.64 434.125 997.018 430.466C984.091 422.053 969.567 414.223 953.85 407.195C947.65 404.41 940.288 405.795 935.7 410.563L898.655 449.027C889.774 446.286 880.69 443.997 871.483 442.203L859.827 391.39C858.386 385.106 852.728 380.454 845.924 379.93C829.416 378.676 812.568 378.705 796.061 379.93C789.241 380.44 783.583 385.091 782.142 391.39L770.485 442.203C761.278 443.997 752.196 446.271 743.33 449.027L706.284 410.563C701.696 405.795 694.334 404.425 688.134 407.195C672.417 414.223 657.893 422.053 644.966 430.466C639.34 434.125 636.938 440.818 639.03 446.927L655.94 496.312C648.903 502.217 642.223 508.501 635.945 515.12L583.463 499.213C576.953 497.23 569.838 499.505 565.963 504.797C557.019 516.958 548.696 530.62 541.225 545.404C538.28 551.222 539.737 558.162 544.806 562.478L585.694 597.326C582.78 605.68 580.347 614.225 578.44 622.885L524.423 633.85C517.742 635.206 512.798 640.528 512.24 646.929C511.589 654.7 511 662.472 511 670.389C511 678.306 511.589 686.078 512.24 693.834V693.834ZM542.325 660.051L595.056 649.335C601.287 648.066 606.062 643.342 607.085 637.422C609.41 623.979 613.161 610.784 618.229 598.186C620.492 592.587 618.865 586.244 614.137 582.22L574.318 548.277C577.79 542.022 581.416 536.029 585.167 530.357L636.256 545.842C642.301 547.664 648.965 545.842 653.011 541.205C662.156 530.678 672.479 520.982 683.67 512.365C688.599 508.574 690.568 502.319 688.599 496.603L672.138 448.546C678.167 445.003 684.522 441.591 691.188 438.339L727.272 475.811C731.565 480.258 738.323 481.789 744.259 479.661C757.62 474.893 771.648 471.364 785.955 469.177C792.248 468.215 797.269 463.724 798.618 457.863L809.995 408.26C817.296 407.895 824.72 407.88 831.989 408.26L843.382 457.863C844.731 463.724 849.752 468.215 856.045 469.177C870.336 471.364 884.364 474.893 897.756 479.661C903.677 481.789 910.435 480.273 914.729 475.811L950.812 438.354C957.462 441.62 963.833 445.032 969.862 448.56L953.401 496.618C951.448 502.333 953.401 508.574 958.33 512.379C969.521 520.982 979.829 530.692 988.989 541.22C993.035 545.871 999.684 547.723 1005.74 545.856L1056.83 530.372C1060.6 536.044 1064.23 542.022 1067.68 548.277L1027.85 582.22C1023.12 586.244 1021.49 592.587 1023.76 598.2C1028.82 610.769 1032.57 623.964 1034.9 637.422C1035.92 643.342 1040.7 648.066 1046.93 649.335L1099.66 660.037C1099.86 663.463 1100 666.919 1100 670.389C1100 673.859 1099.88 677.315 1099.67 680.726L1046.94 691.443C1040.71 692.712 1035.94 697.436 1034.92 703.356C1032.59 716.799 1028.84 729.994 1023.77 742.592C1021.51 748.191 1023.14 754.533 1027.86 758.557L1067.68 792.501C1064.21 798.756 1060.58 804.749 1056.83 810.421L1005.74 794.936C999.653 793.07 993.035 794.921 988.989 799.573C979.86 810.071 969.537 819.781 958.33 828.413C953.401 832.204 951.448 838.459 953.401 844.16L969.862 892.217C963.833 895.761 957.477 899.172 950.828 902.424L914.744 864.952C910.466 860.505 903.723 859.003 897.756 861.103C884.395 865.87 870.367 869.399 856.061 871.586C849.768 872.548 844.746 877.039 843.397 882.9L832.021 932.504C824.72 932.868 817.295 932.883 810.026 932.504L798.633 882.9C797.285 877.039 792.263 872.548 785.97 871.586C771.679 869.399 757.651 865.87 744.259 861.103C738.323 858.974 731.565 860.49 727.287 864.952L691.203 902.409C684.554 899.143 678.183 895.731 672.154 892.203L688.614 844.145C690.567 838.43 688.614 832.189 683.685 828.384C672.494 819.781 662.187 810.071 653.027 799.543C648.981 794.892 642.316 793.055 636.271 794.907L585.183 810.391C581.416 804.72 577.789 798.742 574.333 792.472L614.168 758.528C618.896 754.504 620.523 748.162 618.26 742.548C613.192 729.98 609.441 716.784 607.116 703.326C606.093 697.407 601.319 692.683 595.088 691.414L542.325 680.741C542.139 677.315 542 673.859 542 670.389C542 666.919 542.124 663.463 542.325 660.051V660.051Z" fill="#553A3A" fill-opacity="0.22"/>
<path d="M1320.86 295.184C1326.71 293.458 1330.93 288.646 1331.63 282.913C1332.56 275.527 1333 268.844 1333 262.496C1333 256.149 1332.56 249.465 1331.65 242.079C1330.95 236.346 1326.72 231.535 1320.88 229.809L1277.78 217.07C1276.49 213.75 1275.06 210.489 1273.49 207.3L1294.38 169.64C1297.21 164.536 1296.59 158.335 1292.79 153.801C1283.8 143.095 1273.44 133.355 1262.04 124.858C1257.22 121.274 1250.63 120.704 1245.21 123.351L1205.15 143.008C1201.77 141.545 1198.3 140.2 1194.77 138.986L1181.24 98.4297C1179.4 92.9306 1174.29 88.9525 1168.2 88.2943C1152.47 86.5686 1140.52 86.5686 1124.79 88.2943C1118.7 88.9525 1113.58 92.9306 1111.75 98.4297L1098.21 138.986C1094.68 140.2 1091.22 141.545 1087.83 143.022L1047.81 123.366C1042.39 120.719 1035.81 121.289 1030.98 124.858C1019.6 133.326 1009.25 143.066 1000.22 153.801C996.414 158.335 995.792 164.521 998.621 169.64L1019.49 207.3C1017.94 210.489 1016.51 213.75 1015.22 217.07L972.123 229.809C966.279 231.535 962.051 236.346 961.352 242.079C960.435 249.465 960 256.149 960 262.496C960 268.844 960.435 275.527 961.352 282.913C962.051 288.646 966.279 293.458 972.123 295.184L1015.22 307.923C1016.51 311.242 1017.94 314.504 1019.51 317.692L998.621 355.352C995.792 360.457 996.414 366.658 1000.21 371.192C1009.2 381.897 1019.56 391.638 1030.96 400.135C1035.77 403.718 1042.37 404.289 1047.79 401.641L1087.81 382C1091.2 383.462 1094.67 384.808 1098.2 386.022L1111.73 426.578C1113.57 432.077 1118.68 436.055 1124.77 436.713C1132.65 437.59 1139.75 438 1146.5 438C1153.25 438 1160.35 437.59 1168.2 436.728C1174.29 436.069 1179.4 432.091 1181.24 426.592L1194.77 386.036C1198.3 384.822 1201.77 383.477 1205.15 382L1245.17 401.656C1250.6 404.318 1257.19 403.748 1262.01 400.164C1273.38 391.696 1283.73 381.956 1292.76 371.221C1296.57 366.687 1297.19 360.501 1294.36 355.382L1273.48 317.721C1275.05 314.533 1276.47 311.272 1277.76 307.952L1320.86 295.184ZM1260.87 282.255C1255.96 283.718 1252.14 287.359 1250.64 292.01C1248.53 298.621 1245.73 304.983 1242.35 310.935C1239.91 315.206 1239.86 320.339 1242.25 324.625L1261.97 360.193C1258.29 364.04 1254.39 367.711 1250.32 371.162L1212.52 352.603C1207.95 350.351 1202.5 350.409 1197.97 352.691C1191.65 355.879 1184.89 358.511 1177.86 360.501C1172.94 361.89 1169.05 365.502 1167.5 370.124L1154.69 408.501C1149.02 408.823 1144 408.823 1138.31 408.501L1125.5 370.124C1123.95 365.502 1120.08 361.905 1115.14 360.501C1108.1 358.511 1101.34 355.879 1095.04 352.691C1090.5 350.394 1085.05 350.351 1080.48 352.603L1042.68 371.162C1038.59 367.696 1034.69 364.025 1031.03 360.193L1050.75 324.625C1053.13 320.339 1053.09 315.191 1050.65 310.935C1047.27 304.983 1044.47 298.621 1042.36 292.01C1040.88 287.374 1037.04 283.718 1032.13 282.255L991.348 270.204C991.161 267.527 991.083 264.968 991.083 262.496C991.083 260.025 991.161 257.465 991.348 254.789L1032.13 242.738C1037.04 241.275 1040.86 237.633 1042.36 232.982C1044.47 226.357 1047.27 219.995 1050.65 214.072C1053.09 209.801 1053.14 204.668 1050.75 200.368L1031.03 164.799C1034.71 160.953 1038.61 157.282 1042.68 153.83L1080.48 172.39C1085.03 174.628 1090.5 174.584 1095.03 172.302C1101.35 169.114 1108.11 166.481 1115.14 164.492C1120.06 163.103 1123.95 159.49 1125.5 154.869L1138.31 116.492C1143.98 116.17 1149 116.17 1154.69 116.492L1167.5 154.869C1169.05 159.49 1172.92 163.088 1177.86 164.492C1184.9 166.481 1191.66 169.114 1197.96 172.302C1202.5 174.598 1207.95 174.642 1212.52 172.39L1250.32 153.83C1254.41 157.297 1258.31 160.967 1261.97 164.799L1242.25 200.368C1239.87 204.653 1239.91 209.801 1242.35 214.057C1245.73 220.01 1248.53 226.372 1250.64 232.982C1252.12 237.619 1255.96 241.275 1260.87 242.738L1301.65 254.789C1301.84 257.465 1301.92 260.025 1301.92 262.496C1301.92 264.968 1301.84 267.527 1301.65 270.204L1260.87 282.255Z" fill="#553A3A" fill-opacity="0.22"/>
<path d="M1429.56 568.666L1402.93 559.729C1401.41 555.642 1399.68 551.642 1397.71 547.76L1409.81 523.66C1412.34 518.649 1411.64 512.73 1408.02 508.364C1400.27 499.003 1391.31 490.52 1381.37 483.165C1376.74 479.737 1370.44 479.093 1365.17 481.466L1339.66 492.908C1335.57 491.062 1331.34 489.407 1327.01 487.985L1317.54 462.816C1315.57 457.586 1310.63 453.85 1304.8 453.176C1290.99 451.608 1280.99 451.608 1267.18 453.176C1261.35 453.835 1256.41 457.571 1254.44 462.816L1244.99 487.985C1240.66 489.421 1236.43 491.062 1232.32 492.923L1206.83 481.481C1201.56 479.107 1195.28 479.766 1190.64 483.18C1180.74 490.505 1171.76 498.973 1163.98 508.364C1160.37 512.73 1159.68 518.664 1162.19 523.674L1174.29 547.789C1172.34 551.657 1170.59 555.656 1169.08 559.744L1142.45 568.695C1136.92 570.556 1132.97 575.229 1132.26 580.738C1131.4 587.228 1131 593.045 1131 598.495C1131 603.945 1131.4 609.746 1132.24 616.266C1132.94 621.774 1136.89 626.448 1142.44 628.308L1169.07 637.245C1170.59 641.333 1172.32 645.332 1174.29 649.215L1162.19 673.315C1159.66 678.325 1160.36 684.244 1163.98 688.61C1171.73 697.972 1180.69 706.454 1190.63 713.809C1195.25 717.223 1201.54 717.882 1206.83 715.508L1232.34 704.066C1236.43 705.912 1240.66 707.568 1244.99 708.989L1254.46 734.159C1256.43 739.389 1261.37 743.125 1267.2 743.799C1274.1 744.619 1280.23 745 1286 745C1291.77 745 1297.9 744.619 1304.8 743.828C1310.63 743.169 1315.57 739.433 1317.54 734.188L1327 709.018C1331.32 707.582 1335.55 705.942 1339.66 704.081L1365.16 715.523C1370.44 717.911 1376.74 717.267 1381.34 713.824C1391.25 706.498 1400.22 698.03 1408 688.639C1411.61 684.273 1412.31 678.34 1409.8 673.33L1397.69 649.215C1399.65 645.347 1401.4 641.347 1402.9 637.26L1429.53 628.308C1435.06 626.448 1439.02 621.774 1439.73 616.266C1440.6 609.746 1441 603.945 1441 598.495C1441 593.045 1440.6 587.243 1439.76 580.723C1439.06 575.2 1435.11 570.541 1429.56 568.666V568.666ZM1409.85 603.842L1385.28 612.09C1380.52 613.687 1376.88 617.379 1375.53 621.979C1373.5 628.938 1370.6 635.575 1366.93 641.714C1364.45 645.86 1364.26 650.899 1366.41 655.207L1377.54 677.373C1374.97 680.039 1372.27 682.589 1369.47 685.006L1346.02 674.487C1341.49 672.45 1336.14 672.626 1331.74 674.97C1325.23 678.457 1318.21 681.182 1310.88 683.101C1306.01 684.376 1302.1 687.819 1300.4 692.317L1291.67 715.538C1287.92 715.728 1284.11 715.728 1280.36 715.538L1271.63 692.317C1269.94 687.819 1266.04 684.376 1261.17 683.101C1253.81 681.182 1246.78 678.443 1240.29 674.97C1235.9 672.641 1230.59 672.465 1226.02 674.487L1202.56 685.006C1199.74 682.574 1197.05 680.025 1194.49 677.373L1205.62 655.207C1207.79 650.899 1207.59 645.86 1205.11 641.714C1201.42 635.56 1198.53 628.924 1196.5 621.994C1195.15 617.394 1191.51 613.702 1186.75 612.09L1162.19 603.842C1162.06 602.069 1162 600.297 1162 598.495C1162 596.692 1162.06 594.905 1162.15 593.147L1186.72 584.884C1191.48 583.287 1195.12 579.595 1196.46 574.995C1198.5 568.021 1201.4 561.399 1205.07 555.261C1207.55 551.115 1207.74 546.075 1205.59 541.768L1194.46 519.601C1197.03 516.935 1199.73 514.386 1202.53 511.968L1225.98 522.487C1230.54 524.539 1235.87 524.363 1240.26 522.004C1246.77 518.517 1253.79 515.792 1261.12 513.873C1265.99 512.598 1269.9 509.155 1271.6 504.658L1280.33 481.437C1284.08 481.246 1287.89 481.246 1291.64 481.437L1300.37 504.658C1302.06 509.155 1305.96 512.598 1310.83 513.873C1318.19 515.792 1325.22 518.532 1331.71 522.004C1336.11 524.363 1341.43 524.539 1345.98 522.487L1369.44 511.968C1372.26 514.4 1374.95 516.95 1377.51 519.601L1366.38 541.768C1364.21 546.075 1364.41 551.115 1366.89 555.261C1370.58 561.414 1373.47 568.051 1375.5 574.98C1376.85 579.581 1380.49 583.273 1385.25 584.884L1409.81 593.132C1409.94 594.92 1410 596.692 1410 598.495C1410 600.297 1409.94 602.069 1409.85 603.842V603.842Z" fill="#553A3A" fill-opacity="0.22"/>
<path d="M821 831C915.283 831 992 758.994 992 670.5C992 582.006 915.283 510 821 510C726.717 510 650 582.006 650 670.5C650 758.994 726.717 831 821 831ZM821 539.182C898.137 539.182 960.909 598.1 960.909 670.5C960.909 742.9 898.137 801.818 821 801.818C743.863 801.818 681.091 742.9 681.091 670.5C681.091 598.1 743.863 539.182 821 539.182Z" fill="#553A3A" fill-opacity="0.22"/>
<path d="M511 427.381L534.859 446C605.987 366.188 710.388 320.417 821.329 320.417C829.235 320.417 837.126 320.838 845.017 321.303L825.88 339.211L847.844 359.763L894.445 316.158C900.518 310.475 900.518 301.289 894.445 295.605L847.844 252L825.88 272.553L846.99 292.306C838.446 291.797 829.888 291.347 821.329 291.347C701.161 291.347 588.046 340.926 511 427.381V427.381Z" fill="#553A3A" fill-opacity="0.22"/>
<path d="M1146 189C1102.99 189 1068 221.524 1068 261.5C1068 301.476 1102.99 334 1146 334C1189.01 334 1224 301.476 1224 261.5C1224 221.524 1189.01 189 1146 189ZM1146 305C1120.2 305 1099.2 285.483 1099.2 261.5C1099.2 237.517 1120.2 218 1146 218C1171.8 218 1192.8 237.517 1192.8 261.5C1192.8 285.483 1171.8 305 1146 305Z" fill="#553A3A" fill-opacity="0.22"/>
<path d="M1286 540C1251.81 540 1224 566.237 1224 598.5C1224 630.763 1251.81 657 1286 657C1320.19 657 1348 630.763 1348 598.5C1348 566.237 1320.19 540 1286 540ZM1286 627.75C1268.9 627.75 1255 614.631 1255 598.5C1255 582.369 1268.9 569.25 1286 569.25C1303.1 569.25 1317 582.369 1317 598.5C1317 614.631 1303.1 627.75 1286 627.75Z" fill="#553A3A" fill-opacity="0.22"/>
<path d="M1429 131.837L1350.97 117.292C1342.48 115.692 1334.29 120.827 1332.61 128.695L1317 201.419L1347.6 207.135L1356.01 167.98C1371.14 197.303 1379.13 229.621 1379.13 262.448C1379.13 312.598 1361.37 359.752 1327.78 398.805L1352.14 417C1389.67 373.351 1410.34 318.474 1410.34 262.448C1410.34 224.356 1400.89 186.801 1382.93 152.912L1422.88 160.359L1429 131.837Z" fill="#553A3A" fill-opacity="0.22"/>
<defs>
<linearGradient id="paint0_linear" x1="960" y1="0" x2="960" y2="1080" gradientUnits="userSpaceOnUse">
<stop stop-color="#FF0202"/>
<stop offset="0.515625" stop-color="#8B0202"/>
</linearGradient>
</defs>
</svg>
